<mxfile host="app.diagrams.net" agent="Mozilla/5.0 (Windows NT 10.0; Win64; x64) AppleWebKit/537.36 (KHTML, like Gecko) Chrome/138.0.0.0 Safari/537.36" version="28.0.7">
  <diagram name="Page-1" id="-0_-RWZ_UjvKUZFVsXlL">
    <mxGraphModel dx="872" dy="534" grid="1" gridSize="10" guides="1" tooltips="1" connect="1" arrows="1" fold="1" page="1" pageScale="1" pageWidth="850" pageHeight="1100" math="0" shadow="0">
      <root>
        <mxCell id="0" />
        <mxCell id="1" parent="0" />
        <mxCell id="jqPG6r0uC9zLiTmpDIX0-1" value="Start: Loan Application" style="ellipse;whiteSpace=wrap;html=1;fillColor=#ffe6cc;strokeColor=#d79b00;" vertex="1" parent="1">
          <mxGeometry x="355" y="50" width="90" height="80" as="geometry" />
        </mxCell>
        <mxCell id="jqPG6r0uC9zLiTmpDIX0-2" value="Customer" style="text;html=1;align=center;verticalAlign=middle;resizable=0;points=[];autosize=1;strokeColor=#d79b00;fillColor=#ffe6cc;" vertex="1" parent="1">
          <mxGeometry x="100" y="75" width="80" height="30" as="geometry" />
        </mxCell>
        <mxCell id="jqPG6r0uC9zLiTmpDIX0-3" value="" style="endArrow=classic;html=1;rounded=0;exitX=0.5;exitY=1;exitDx=0;exitDy=0;" edge="1" parent="1" source="jqPG6r0uC9zLiTmpDIX0-1">
          <mxGeometry width="50" height="50" relative="1" as="geometry">
            <mxPoint x="400" y="280" as="sourcePoint" />
            <mxPoint x="400" y="190" as="targetPoint" />
          </mxGeometry>
        </mxCell>
        <mxCell id="jqPG6r0uC9zLiTmpDIX0-4" value="Application Submission" style="rounded=1;whiteSpace=wrap;html=1;fillColor=#ffe6cc;strokeColor=#d79b00;" vertex="1" parent="1">
          <mxGeometry x="300" y="190" width="200" height="60" as="geometry" />
        </mxCell>
        <mxCell id="jqPG6r0uC9zLiTmpDIX0-34" value="" style="edgeStyle=orthogonalEdgeStyle;rounded=0;orthogonalLoop=1;jettySize=auto;html=1;" edge="1" parent="1" source="jqPG6r0uC9zLiTmpDIX0-5" target="jqPG6r0uC9zLiTmpDIX0-7">
          <mxGeometry relative="1" as="geometry" />
        </mxCell>
        <mxCell id="jqPG6r0uC9zLiTmpDIX0-5" value="Document Verification" style="rounded=1;whiteSpace=wrap;html=1;fillColor=#d5e8d4;strokeColor=#82b366;" vertex="1" parent="1">
          <mxGeometry x="300" y="290" width="200" height="60" as="geometry" />
        </mxCell>
        <mxCell id="jqPG6r0uC9zLiTmpDIX0-6" value="System" style="text;html=1;align=center;verticalAlign=middle;resizable=0;points=[];autosize=1;strokeColor=#82b366;fillColor=#d5e8d4;" vertex="1" parent="1">
          <mxGeometry x="110" y="305" width="60" height="30" as="geometry" />
        </mxCell>
        <mxCell id="jqPG6r0uC9zLiTmpDIX0-35" value="" style="edgeStyle=orthogonalEdgeStyle;rounded=0;orthogonalLoop=1;jettySize=auto;html=1;" edge="1" parent="1" source="jqPG6r0uC9zLiTmpDIX0-7" target="jqPG6r0uC9zLiTmpDIX0-8">
          <mxGeometry relative="1" as="geometry" />
        </mxCell>
        <mxCell id="jqPG6r0uC9zLiTmpDIX0-7" value="Automated Checks" style="rhombus;whiteSpace=wrap;html=1;fillColor=#d5e8d4;strokeColor=#82b366;" vertex="1" parent="1">
          <mxGeometry x="325" y="410" width="150" height="80" as="geometry" />
        </mxCell>
        <mxCell id="jqPG6r0uC9zLiTmpDIX0-36" value="" style="edgeStyle=orthogonalEdgeStyle;rounded=0;orthogonalLoop=1;jettySize=auto;html=1;" edge="1" parent="1" source="jqPG6r0uC9zLiTmpDIX0-8" target="jqPG6r0uC9zLiTmpDIX0-9">
          <mxGeometry relative="1" as="geometry" />
        </mxCell>
        <mxCell id="jqPG6r0uC9zLiTmpDIX0-8" value="Risk Assessment" style="rounded=1;whiteSpace=wrap;html=1;fillColor=#d5e8d4;strokeColor=#82b366;" vertex="1" parent="1">
          <mxGeometry x="300" y="560" width="200" height="60" as="geometry" />
        </mxCell>
        <mxCell id="jqPG6r0uC9zLiTmpDIX0-9" value="Eligibility Checks" style="rhombus;whiteSpace=wrap;html=1;fillColor=#d5e8d4;strokeColor=#82b366;" vertex="1" parent="1">
          <mxGeometry x="325" y="690" width="150" height="80" as="geometry" />
        </mxCell>
        <mxCell id="jqPG6r0uC9zLiTmpDIX0-18" value="" style="edgeStyle=orthogonalEdgeStyle;rounded=0;orthogonalLoop=1;jettySize=auto;html=1;" edge="1" parent="1" source="jqPG6r0uC9zLiTmpDIX0-10" target="jqPG6r0uC9zLiTmpDIX0-16">
          <mxGeometry relative="1" as="geometry" />
        </mxCell>
        <mxCell id="jqPG6r0uC9zLiTmpDIX0-10" value="Loan Approval&lt;span style=&quot;color: rgba(0, 0, 0, 0); font-family: monospace; font-size: 0px; text-align: start; text-wrap-mode: nowrap;&quot;&gt;%3CmxGraphModel%3E%3Croot%3E%3CmxCell%20id%3D%220%22%2F%3E%3CmxCell%20id%3D%221%22%20parent%3D%220%22%2F%3E%3CmxCell%20id%3D%222%22%20value%3D%22Risk%20Assessment%22%20style%3D%22rounded%3D1%3BwhiteSpace%3Dwrap%3Bhtml%3D1%3B%22%20vertex%3D%221%22%20parent%3D%221%22%3E%3CmxGeometry%20x%3D%22300%22%20y%3D%22560%22%20width%3D%22200%22%20height%3D%2260%22%20as%3D%22geometry%22%2F%3E%3C%2FmxCell%3E%3C%2Froot%3E%3C%2FmxGraphModel%3E&lt;/span&gt;" style="rounded=1;whiteSpace=wrap;html=1;fillColor=#d5e8d4;strokeColor=#82b366;" vertex="1" parent="1">
          <mxGeometry x="300" y="920" width="200" height="60" as="geometry" />
        </mxCell>
        <mxCell id="jqPG6r0uC9zLiTmpDIX0-19" value="" style="edgeStyle=orthogonalEdgeStyle;rounded=0;orthogonalLoop=1;jettySize=auto;html=1;" edge="1" parent="1" source="jqPG6r0uC9zLiTmpDIX0-11" target="jqPG6r0uC9zLiTmpDIX0-12">
          <mxGeometry relative="1" as="geometry" />
        </mxCell>
        <mxCell id="jqPG6r0uC9zLiTmpDIX0-11" value="Manual Review" style="rounded=1;whiteSpace=wrap;html=1;fillColor=#dae8fc;strokeColor=#6c8ebf;" vertex="1" parent="1">
          <mxGeometry x="590" y="815" width="200" height="60" as="geometry" />
        </mxCell>
        <mxCell id="jqPG6r0uC9zLiTmpDIX0-12" value="Loan Rejection&lt;span style=&quot;color: rgba(0, 0, 0, 0); font-family: monospace; font-size: 0px; text-align: start; text-wrap-mode: nowrap;&quot;&gt;%3CmxGraphModel%3E%3Croot%3E%3CmxCell%20id%3D%220%22%2F%3E%3CmxCell%20id%3D%221%22%20parent%3D%220%22%2F%3E%3CmxCell%20id%3D%222%22%20value%3D%22Risk%20Assessment%22%20style%3D%22rounded%3D1%3BwhiteSpace%3Dwrap%3Bhtml%3D1%3B%22%20vertex%3D%221%22%20parent%3D%221%22%3E%3CmxGeometry%20x%3D%22300%22%20y%3D%22560%22%20width%3D%22200%22%20height%3D%2260%22%20as%3D%22geometry%22%2F%3E%3C%2FmxCell%3E%3C%2Froot%3E%3C%2FmxGraphModel%3E&lt;/span&gt;" style="rounded=1;whiteSpace=wrap;html=1;fillColor=#dae8fc;strokeColor=#6c8ebf;" vertex="1" parent="1">
          <mxGeometry x="590" y="960" width="200" height="60" as="geometry" />
        </mxCell>
        <mxCell id="jqPG6r0uC9zLiTmpDIX0-13" value="Loan Officer" style="text;html=1;align=center;verticalAlign=middle;resizable=0;points=[];autosize=1;strokeColor=#6c8ebf;fillColor=#dae8fc;" vertex="1" parent="1">
          <mxGeometry x="95" y="845" width="90" height="30" as="geometry" />
        </mxCell>
        <mxCell id="jqPG6r0uC9zLiTmpDIX0-14" value="" style="endArrow=classic;html=1;rounded=0;exitX=0.5;exitY=1;exitDx=0;exitDy=0;entryX=0.5;entryY=0;entryDx=0;entryDy=0;" edge="1" parent="1" source="jqPG6r0uC9zLiTmpDIX0-4" target="jqPG6r0uC9zLiTmpDIX0-5">
          <mxGeometry width="50" height="50" relative="1" as="geometry">
            <mxPoint x="400" y="270" as="sourcePoint" />
            <mxPoint x="450" y="220" as="targetPoint" />
          </mxGeometry>
        </mxCell>
        <mxCell id="jqPG6r0uC9zLiTmpDIX0-16" value="End: Loan Application" style="ellipse;whiteSpace=wrap;html=1;fillColor=#d5e8d4;strokeColor=#82b366;" vertex="1" parent="1">
          <mxGeometry x="355" y="1010" width="90" height="80" as="geometry" />
        </mxCell>
        <mxCell id="jqPG6r0uC9zLiTmpDIX0-24" value="" style="endArrow=classic;html=1;rounded=0;exitX=1;exitY=0.5;exitDx=0;exitDy=0;" edge="1" parent="1" source="jqPG6r0uC9zLiTmpDIX0-9">
          <mxGeometry relative="1" as="geometry">
            <mxPoint x="380" y="860" as="sourcePoint" />
            <mxPoint x="680" y="810" as="targetPoint" />
            <Array as="points">
              <mxPoint x="680" y="730" />
            </Array>
          </mxGeometry>
        </mxCell>
        <mxCell id="jqPG6r0uC9zLiTmpDIX0-25" value="No" style="edgeLabel;resizable=0;html=1;;align=center;verticalAlign=middle;" connectable="0" vertex="1" parent="jqPG6r0uC9zLiTmpDIX0-24">
          <mxGeometry relative="1" as="geometry" />
        </mxCell>
        <mxCell id="jqPG6r0uC9zLiTmpDIX0-26" value="" style="endArrow=classic;html=1;rounded=0;exitX=0.5;exitY=1;exitDx=0;exitDy=0;entryX=0.5;entryY=0;entryDx=0;entryDy=0;" edge="1" parent="1" source="jqPG6r0uC9zLiTmpDIX0-9" target="jqPG6r0uC9zLiTmpDIX0-10">
          <mxGeometry relative="1" as="geometry">
            <mxPoint x="380" y="860" as="sourcePoint" />
            <mxPoint x="480" y="860" as="targetPoint" />
          </mxGeometry>
        </mxCell>
        <mxCell id="jqPG6r0uC9zLiTmpDIX0-27" value="Yes" style="edgeLabel;resizable=0;html=1;;align=center;verticalAlign=middle;" connectable="0" vertex="1" parent="jqPG6r0uC9zLiTmpDIX0-26">
          <mxGeometry relative="1" as="geometry" />
        </mxCell>
        <mxCell id="jqPG6r0uC9zLiTmpDIX0-29" value="" style="endArrow=classic;html=1;rounded=0;exitX=0.5;exitY=1;exitDx=0;exitDy=0;entryX=1;entryY=0.5;entryDx=0;entryDy=0;" edge="1" parent="1" source="jqPG6r0uC9zLiTmpDIX0-12" target="jqPG6r0uC9zLiTmpDIX0-16">
          <mxGeometry width="50" height="50" relative="1" as="geometry">
            <mxPoint x="475" y="1080" as="sourcePoint" />
            <mxPoint x="525" y="1030" as="targetPoint" />
            <Array as="points">
              <mxPoint x="690" y="1050" />
            </Array>
          </mxGeometry>
        </mxCell>
        <mxCell id="jqPG6r0uC9zLiTmpDIX0-31" value="" style="endArrow=classic;html=1;rounded=0;exitX=0;exitY=0.5;exitDx=0;exitDy=0;entryX=1;entryY=0.5;entryDx=0;entryDy=0;" edge="1" parent="1" source="jqPG6r0uC9zLiTmpDIX0-11" target="jqPG6r0uC9zLiTmpDIX0-10">
          <mxGeometry relative="1" as="geometry">
            <mxPoint x="380" y="960" as="sourcePoint" />
            <mxPoint x="510" y="940" as="targetPoint" />
            <Array as="points">
              <mxPoint x="520" y="845" />
            </Array>
          </mxGeometry>
        </mxCell>
        <mxCell id="jqPG6r0uC9zLiTmpDIX0-37" value="" style="endArrow=classic;html=1;rounded=0;exitX=1;exitY=0.5;exitDx=0;exitDy=0;" edge="1" parent="1">
          <mxGeometry relative="1" as="geometry">
            <mxPoint x="475" y="450" as="sourcePoint" />
            <mxPoint x="730" y="810" as="targetPoint" />
            <Array as="points">
              <mxPoint x="730" y="450" />
            </Array>
          </mxGeometry>
        </mxCell>
        <mxCell id="jqPG6r0uC9zLiTmpDIX0-38" value="No" style="edgeLabel;resizable=0;html=1;;align=center;verticalAlign=middle;" connectable="0" vertex="1" parent="jqPG6r0uC9zLiTmpDIX0-37">
          <mxGeometry relative="1" as="geometry" />
        </mxCell>
      </root>
    </mxGraphModel>
  </diagram>
</mxfile>
